<svg id="OBJECTS" xmlns="http://www.w3.org/2000/svg" viewBox="0 0 82.11 182.4"><defs><style>.cls-1{fill:#c68f30;}.cls-2{fill:#f4cc6a;}.cls-3{fill:none;}.cls-4{fill:#e1ad3d;}</style></defs><title>award</title><path class="cls-1" d="M429.51,84.72a3.41,3.41,0,0,0-.75.76,24.4,24.4,0,0,0,.36-2.72,3.41,3.41,0,0,0,2.32-1,3.48,3.48,0,0,0,1-2.64V79.06h-0.25a3.32,3.32,0,0,0-3,1.81,23.62,23.62,0,0,0-.15-2.7,3.42,3.42,0,0,0,2.11-1.38,3.49,3.49,0,0,0,.53-2.78V73.94h-0.06a3.34,3.34,0,0,0-2.84,2.35,23,23,0,0,0-.62-2.64A3.43,3.43,0,0,0,430,71.92a3.49,3.49,0,0,0,0-2.83l0-.05-0.06,0a3.36,3.36,0,0,0-2.4,2.89,20.6,20.6,0,0,0-1.09-2.54A3.44,3.44,0,0,0,428,67.34a3.48,3.48,0,0,0-.45-2.79l0,0-0.05,0a3.38,3.38,0,0,0-1.86,3.34,23.82,23.82,0,0,0-1.54-2.36,3.45,3.45,0,0,0,.3-5l0,0,0,0a3.41,3.41,0,0,0-1.23,3.72,23,23,0,0,0-2-2.13,3.45,3.45,0,0,0-.55-5l0,0,0,0a3.41,3.41,0,0,0-.57,3.88,28.46,28.46,0,0,0-2.28-1.76,3.45,3.45,0,0,0-1.41-4.82l-0.05,0,0,0a3.49,3.49,0,0,0-.45,2.79,3.44,3.44,0,0,0,.53,1.1A27.72,27.72,0,0,0,413.7,57a3.48,3.48,0,0,0-.11-2.6,3.44,3.44,0,0,0-2.12-1.85l-0.06,0,0,0.05a3.48,3.48,0,0,0,0,2.83,3.43,3.43,0,0,0,.61.88,20.41,20.41,0,0,0-2.32-.78A3.38,3.38,0,0,0,405,53.94L405,54,405,54a3.45,3.45,0,0,0,2,2,3.22,3.22,0,0,0,2.43-.06h0a25.79,25.79,0,0,1,2.63.9,3.39,3.39,0,0,0-1.3.31A3.46,3.46,0,0,0,409,59.29l0,0.06,0.05,0a3.38,3.38,0,0,0,4.52-1.9,21.2,21.2,0,0,1,2.42,1.29,3.38,3.38,0,0,0-1.18.09,3.44,3.44,0,0,0-2.17,1.79l0,0.05,0,0a3.37,3.37,0,0,0,4.75-1,22.61,22.61,0,0,1,2.13,1.63,3.33,3.33,0,0,0-1.11-.11,3.43,3.43,0,0,0-2.45,1.38l0,0,0,0a3.42,3.42,0,0,0,2.35.94h0.3a3.41,3.41,0,0,0,2.21-1.12,26.08,26.08,0,0,1,1.85,2,3.32,3.32,0,0,0-3.77.61l0,0,0,0a3.43,3.43,0,0,0,2.45,1.38h0.3a3.41,3.41,0,0,0,2.08-.73,24.75,24.75,0,0,1,1.53,2.35,3.33,3.33,0,0,0-3.87-.1l0,0,0,0.05A3.44,3.44,0,0,0,423.49,70a3.35,3.35,0,0,0,2.51-.31,25,25,0,0,1,1.14,2.68,3.37,3.37,0,0,0-3.88-.85l-0.05,0,0,0.06a3.46,3.46,0,0,0,1.83,2.14,3.28,3.28,0,0,0,2.56.12,22.43,22.43,0,0,1,.66,2.9,3.4,3.4,0,0,0-3.7-1.56h-0.06v0.06A3.47,3.47,0,0,0,426,77.7a3.13,3.13,0,0,0,2.52.56,22.57,22.57,0,0,1,.15,2.63c0,0.13,0,.25,0,0.36a3.46,3.46,0,0,0-.77-1.19,3.41,3.41,0,0,0-2.62-1H425.2v0.06a3.48,3.48,0,0,0,1,2.64,3.41,3.41,0,0,0,2.38,1,22.06,22.06,0,0,1-.39,2.83,3.46,3.46,0,0,0-.52-1.2,3.42,3.42,0,0,0-2.41-1.45h-0.06V83a3.49,3.49,0,0,0,.53,2.78,3.42,3.42,0,0,0,2.14,1.39,25.76,25.76,0,0,1-.85,2.67,3.39,3.39,0,0,0-2.42-3.06l-0.06,0,0,0.05a3.49,3.49,0,0,0,0,2.83,3.43,3.43,0,0,0,1.83,1.73,24,24,0,0,1-1.26,2.41,3.38,3.38,0,0,0-1.86-3.35l-0.05,0,0,0a3.49,3.49,0,0,0-.45,2.79,3.45,3.45,0,0,0,1.47,2c-0.52.75-1.06,1.46-1.62,2.13a3.38,3.38,0,0,0-1.26-3.57l0,0,0,0a3.44,3.44,0,0,0,.17,4.89,25,25,0,0,1-2,1.83,3.44,3.44,0,0,0,.29-1.07,3.48,3.48,0,0,0-.92-2.67l0,0,0,0a3.44,3.44,0,0,0-.66,4.86c-0.33.25-.69,0.5-1.1,0.77s-0.78.5-1.18,0.73a3.44,3.44,0,0,0,.5-1.05,3.49,3.49,0,0,0-.45-2.79l0,0-0.05,0a3.44,3.44,0,0,0-1.46,4.72,28.36,28.36,0,0,1-2.65,1.15,3.44,3.44,0,0,0,.79-1.08,3.49,3.49,0,0,0,0-2.83l0-.05-0.06,0a3.44,3.44,0,0,0-2.12,1.85,3.48,3.48,0,0,0-.1,2.63,39.41,39.41,0,0,0-8.05,3.58,39.4,39.4,0,0,0-8.06-3.58A3.48,3.48,0,0,0,394,103a3.44,3.44,0,0,0-2.12-1.85l-0.06,0,0,0.05a3.49,3.49,0,0,0,0,2.83,3.44,3.44,0,0,0,.8,1.09,28.17,28.17,0,0,1-2.66-1.16,3.44,3.44,0,0,0-1.46-4.72l-0.05,0,0,0a3.49,3.49,0,0,0-.45,2.79,3.45,3.45,0,0,0,.53,1.1c-0.43-.26-0.84-0.5-1.23-0.77l-0.1-.07-1-.69a3.44,3.44,0,0,0-.65-4.87l0,0,0,0a3.39,3.39,0,0,0-.62,3.76,25.19,25.19,0,0,1-2-1.84A3.44,3.44,0,0,0,383,93.8l0,0,0,0a3.38,3.38,0,0,0-1.26,3.59c-0.52-.62-1-1.31-1.63-2.14a3.44,3.44,0,0,0,1.48-2,3.49,3.49,0,0,0-.45-2.79l0,0-0.05,0a3.38,3.38,0,0,0-1.86,3.36,24.94,24.94,0,0,1-1.26-2.42,3.43,3.43,0,0,0,1.82-1.72,3.49,3.49,0,0,0,0-2.83l0-.05-0.06,0a3.38,3.38,0,0,0-2.41,3,22,22,0,0,1-.85-2.66,3.42,3.42,0,0,0,2.13-1.39A3.49,3.49,0,0,0,379,83V82.94H379a3.43,3.43,0,0,0-2.41,1.45,3.47,3.47,0,0,0-.52,1.2,22.68,22.68,0,0,1-.39-2.82,3.42,3.42,0,0,0,2.38-1,3.48,3.48,0,0,0,1-2.64V79.06H379a3.41,3.41,0,0,0-2.62,1,3.45,3.45,0,0,0-.75,1.17c0-.11,0-0.23,0-0.34a22.46,22.46,0,0,1,.15-2.63,3.12,3.12,0,0,0,2.51-.56,3.47,3.47,0,0,0,1.44-2.43V75.21h-0.06a3.39,3.39,0,0,0-3.68,1.53,24,24,0,0,1,.65-2.87,3.28,3.28,0,0,0,2.56-.12A3.46,3.46,0,0,0,381,71.59l0-.06-0.05,0a3.37,3.37,0,0,0-3.87.84,25.13,25.13,0,0,1,1.13-2.66,3.4,3.4,0,0,0,4.68-1.48l0-.05,0,0a3.33,3.33,0,0,0-3.87.09,23.47,23.47,0,0,1,1.53-2.35,3.4,3.4,0,0,0,2.08.73h0.3a3.43,3.43,0,0,0,2.45-1.38l0,0,0,0a3.41,3.41,0,0,0-2.65-.93,3.37,3.37,0,0,0-1.11.31,26.2,26.2,0,0,1,1.84-2,3.41,3.41,0,0,0,2.21,1.11h0.3a3.42,3.42,0,0,0,2.35-.94l0,0,0,0a3.43,3.43,0,0,0-2.45-1.38,3.33,3.33,0,0,0-1.1.1,23,23,0,0,1,2.11-1.63,3.38,3.38,0,0,0,4.74,1l0,0,0-.05a3.44,3.44,0,0,0-2.17-1.79,3.38,3.38,0,0,0-1.18-.09,21.28,21.28,0,0,1,2.41-1.29,3.44,3.44,0,0,0,1.71,1.85,3.41,3.41,0,0,0,2.8,0l0.05,0,0-.06a3.46,3.46,0,0,0-1.83-2.14,3.39,3.39,0,0,0-1.29-.31,25.72,25.72,0,0,1,2.64-.91h0a3.22,3.22,0,0,0,2.42.06,3.44,3.44,0,0,0,2-2l0-.05-0.05,0a3.38,3.38,0,0,0-4.68,1.51c-0.74.21-1.51,0.47-2.31,0.78a3.43,3.43,0,0,0,.59-0.86,3.49,3.49,0,0,0,0-2.83l0-.05-0.06,0a3.44,3.44,0,0,0-2.12,1.85,3.47,3.47,0,0,0-.11,2.6A26.49,26.49,0,0,0,388,58.29a3.44,3.44,0,0,0,.52-1.08,3.49,3.49,0,0,0-.45-2.79l0,0-0.05,0a3.45,3.45,0,0,0-1.41,4.81A24.67,24.67,0,0,0,384.31,61a3.42,3.42,0,0,0-.58-3.87l0,0,0,0a3.45,3.45,0,0,0-.56,5,26.87,26.87,0,0,0-1.94,2.12,3.4,3.4,0,0,0-1.24-3.69l0,0,0,0a3.45,3.45,0,0,0,.29,5,23.89,23.89,0,0,0-1.54,2.35,3.38,3.38,0,0,0-1.86-3.33l-0.05,0,0,0a3.48,3.48,0,0,0-.45,2.79,3.44,3.44,0,0,0,1.56,2.05,25.83,25.83,0,0,0-1.08,2.51,3.35,3.35,0,0,0-2.39-2.85l-0.06,0,0,0.05a3.49,3.49,0,0,0,0,2.83,3.43,3.43,0,0,0,1.85,1.73,26.71,26.71,0,0,0-.62,2.63,3.33,3.33,0,0,0-2.83-2.33h-0.06V74a3.49,3.49,0,0,0,.53,2.78,3.42,3.42,0,0,0,2.1,1.38,23.48,23.48,0,0,0-.15,2.69,3.32,3.32,0,0,0-3.18-1.79h-0.06v0.06a3.48,3.48,0,0,0,1,2.64,3.41,3.41,0,0,0,2.32,1c0.07,1,.19,1.83.34,2.68A3.31,3.31,0,0,0,372,84.19H371.9v0.06a3.47,3.47,0,0,0,1.44,2.43,3.09,3.09,0,0,0,2.49.56,24.65,24.65,0,0,0,.84,2.67,3.31,3.31,0,0,0-3.71-.69l-0.05,0,0,0.06a3.45,3.45,0,0,0,1.83,2.14,3.29,3.29,0,0,0,2.58.11,26,26,0,0,0,1.35,2.55,3.34,3.34,0,0,0-3.87-.1l0,0,0,0.05A3.44,3.44,0,0,0,377,95.88a3.36,3.36,0,0,0,2.61-.36,25,25,0,0,0,1.75,2.31,3.34,3.34,0,0,0-3.86.57l0,0,0,0a3.43,3.43,0,0,0,2.45,1.38h0.3a3.41,3.41,0,0,0,2.23-.84,26.52,26.52,0,0,0,2.1,2,3.34,3.34,0,0,0-3.69,1.24l0,0,0,0a3.42,3.42,0,0,0,2.35.94h0.3a3.42,3.42,0,0,0,2.33-1.25c0.47,0.36.91,0.67,1.34,0.93s0.7,0.45,1,.65a3.37,3.37,0,0,0-1.2.09,3.43,3.43,0,0,0-2.17,1.79l0,0.05,0,0a3.38,3.38,0,0,0,4.82-1.15,23,23,0,0,0,2.51,1.12,3.38,3.38,0,0,0-1,.28,3.46,3.46,0,0,0-1.83,2.14l0,0.06,0.05,0a3.38,3.38,0,0,0,4.51-1.87l0,0a38.45,38.45,0,0,1,7.69,3.38,24.62,24.62,0,0,0-3.32,2.47l-0.05,0,0.39,0.39,0,0a24.16,24.16,0,0,1,3.45-2.56,25.34,25.34,0,0,1,3.44,2.56l0,0,0.39-.39-0.05,0a25.48,25.48,0,0,0-3.31-2.47,38.57,38.57,0,0,1,7.62-3.36l0.11,0a3.44,3.44,0,0,0,1.71,1.83,3.41,3.41,0,0,0,2.8,0l0.05,0,0-.06a3.46,3.46,0,0,0-1.83-2.14,3.38,3.38,0,0,0-1-.27,26.25,26.25,0,0,0,2.46-1.12A3.43,3.43,0,0,0,416.6,106a3.4,3.4,0,0,0,2.77-.45l0,0,0-.05a3.43,3.43,0,0,0-2.17-1.79,3.38,3.38,0,0,0-1.19-.09c0.38-.22.71-0.42,1-0.62s0.84-.56,1.36-1a3.42,3.42,0,0,0,2.34,1.26H421a3.42,3.42,0,0,0,2.35-.94l0,0,0,0a3.43,3.43,0,0,0-2.45-1.38,3.36,3.36,0,0,0-1.24.14,26.91,26.91,0,0,0,2.11-2,3.41,3.41,0,0,0,2.22.84h0.3a3.43,3.43,0,0,0,2.45-1.38l0,0,0,0a3.34,3.34,0,0,0-3.87-.57,27,27,0,0,0,1.77-2.31,3.4,3.4,0,0,0,4.78-1.43l0-.05,0,0a3.33,3.33,0,0,0-3.88.1,25.14,25.14,0,0,0,1.35-2.56,3.29,3.29,0,0,0,2.59-.11,3.46,3.46,0,0,0,1.83-2.14l0-.06-0.05,0a3.32,3.32,0,0,0-3.73.71,24.76,24.76,0,0,0,.84-2.68,3.1,3.1,0,0,0,2.5-.56,3.46,3.46,0,0,0,1.44-2.43V84.2h-0.06A3.4,3.4,0,0,0,429.51,84.72Z" transform="translate(-361.31 -52.49)"/><path class="cls-2" d="M400.74,105.23l-0.14-.13m-5.21-26.17v41.28h13.94V78.93H395.39Zm8.75,26.17-0.14.13" transform="translate(-361.31 -52.49)"/><line class="cls-3" x1="43.36" y1="42.45" x2="43.18" y2="42.63"/><rect class="cls-1" x="25.01" y="63.3" width="32.09" height="96.84"/><path class="cls-2" d="M411.06,135.59v57.24a4.2,4.2,0,0,0-4.2,4.2h-9a4.2,4.2,0,0,0-4.2-4.2V135.59a4.2,4.2,0,0,0,4.2-4.2h9A4.2,4.2,0,0,0,411.06,135.59Z" transform="translate(-361.31 -52.49)"/><rect class="cls-1" x="18.58" y="160.14" width="44.83" height="7.42"/><rect class="cls-4" x="9.44" y="167.56" width="63.23" height="7.42"/><rect class="cls-2" y="174.98" width="82.11" height="7.42"/><circle class="cls-2" cx="40.8" cy="28.36" r="18.86"/><polygon class="cls-1" points="40.8 16.36 44.25 23.36 51.98 24.48 46.39 29.93 47.71 37.63 40.8 34 33.88 37.63 35.2 29.93 29.61 24.48 37.34 23.36 40.8 16.36"/></svg>