<svg id="RAW_ICONS_-_SQUARE_ROUNDED_CIRCLE" data-name="RAW ICONS - SQUARE ROUNDED CIRCLE" xmlns="http://www.w3.org/2000/svg" viewBox="0 0 32 32"><defs><style>.cls-1{fill:#ce4e4d;}.cls-2{fill:#fff;}</style></defs><title>cv</title><circle class="cls-1" cx="16" cy="16" r="16"/><path class="cls-2" d="M14.82,20.54a6.69,6.69,0,0,1-2.45.4c-2.84,0-4.66-1.73-4.66-4.5,0-2.58,1.76-4.68,5-4.68a6.33,6.33,0,0,1,2.09.34l-0.43,2a3.73,3.73,0,0,0-1.53-.27,2.47,2.47,0,0,0,0,4.93,4.22,4.22,0,0,0,1.57-.27Z"/><path class="cls-2" d="M18.63,12L19.82,16a20.41,20.41,0,0,1,.5,2.14h0c0.14-.72.29-1.39,0.49-2.14L22,12h2.88l-3.28,8.8H18.85L15.64,12h3Z"/></svg>