<svg id="RAW_ICONS_-_SQUARE_ROUNDED_CIRCLE" data-name="RAW ICONS - SQUARE ROUNDED CIRCLE" xmlns="http://www.w3.org/2000/svg" viewBox="0 0 32 32"><defs><style>.cls-1{fill:#ce4e4d;}</style></defs><title>in</title><path class="cls-1" d="M150.87,14.83h0Z" transform="translate(-133.91)"/><path class="cls-1" d="M149.91,0a16,16,0,1,0,16,16A16,16,0,0,0,149.91,0Zm-4.37,23.65h-3.39V13.33h3.43V23.65h0Zm-1.72-11.73h0a1.78,1.78,0,1,1,.23,0h-0.23ZM157.9,23.65h-3.43V18.13c0-1.39-.5-2.33-1.74-2.33A1.88,1.88,0,0,0,151,17.06a2.33,2.33,0,0,0-.11.84v5.76h-3.43V13.34h3.43V14.8A3.4,3.4,0,0,1,154,13.1c2.26,0,4,1.47,4,4.64v5.92h0Z" transform="translate(-133.91)"/></svg>